<svg width="773" height="481" viewBox="0 0 773 481" fill="none" xmlns="http://www.w3.org/2000/svg">
<path d="M123.307 345.261L83.8963 269.995H83.6V345.261H17.8162V135.464H115.603C132.592 135.464 147.112 138.526 159.162 144.65C171.213 150.577 180.201 158.775 186.128 169.245C192.252 179.518 195.314 191.173 195.314 204.211C195.314 218.237 191.363 230.683 183.461 241.548C175.757 252.413 164.595 260.216 149.976 264.958L195.61 345.261H123.307ZM83.6 226.139H109.676C115.998 226.139 120.739 224.756 123.9 221.991C127.061 219.027 128.641 214.484 128.641 208.36C128.641 202.828 126.962 198.482 123.604 195.322C120.443 192.161 115.8 190.58 109.676 190.58H83.6V226.139ZM387.901 207.471C387.901 220.707 384.839 232.757 378.715 243.622C372.591 254.29 363.504 262.785 351.453 269.106C339.6 275.428 325.179 278.588 308.19 278.588H282.114V345.261H216.33V135.464H308.19C333.871 135.464 353.528 141.983 367.158 155.022C380.987 168.06 387.901 185.543 387.901 207.471ZM300.782 226.732C314.413 226.732 321.228 220.312 321.228 207.471C321.228 194.63 314.413 188.21 300.782 188.21H282.114V226.732H300.782ZM474.55 295.479H537.963V345.261H408.766V135.464H474.55V295.479Z" fill="#444444"/>
<path d="M685.137 318.581H599.736L578.875 359H520.529L643.74 130.179H708.28L750.654 359H691.656L685.137 318.581ZM678.618 276.207L665.253 191.459L621.575 276.207H678.618Z" fill="#444444"/>
<path d="M756.233 88.4698C758.9 88.4698 761.226 89.0032 763.211 90.07C765.197 91.1071 766.723 92.5739 767.79 94.4704C768.856 96.3669 769.39 98.5745 769.39 101.093C769.39 102.249 769.286 103.36 769.079 104.427C768.545 107.509 767.404 110.264 765.656 112.694C763.908 115.124 761.715 117.021 759.078 118.384C756.47 119.747 753.64 120.428 750.588 120.428C747.921 120.428 745.595 119.91 743.61 118.873C741.624 117.806 740.098 116.324 739.031 114.428C737.965 112.502 737.431 110.279 737.431 107.76C737.431 106.605 737.535 105.494 737.742 104.427C738.305 101.345 739.461 98.5893 741.209 96.1594C742.958 93.7296 745.136 91.8479 747.743 90.5145C750.351 89.1514 753.181 88.4698 756.233 88.4698ZM755.833 90.9145C753.166 90.9145 750.751 91.4775 748.588 92.6036C746.454 93.6999 744.676 95.2705 743.254 97.3151C741.861 99.3301 740.928 101.701 740.454 104.427C740.276 105.494 740.187 106.531 740.187 107.538C740.187 110.768 741.135 113.317 743.032 115.183C744.928 117.05 747.595 117.984 751.033 117.984C753.67 117.984 756.055 117.421 758.189 116.295C760.352 115.169 762.145 113.583 763.567 111.539C764.989 109.494 765.923 107.123 766.367 104.427C766.575 103.123 766.678 102.056 766.678 101.227C766.678 98.0263 765.715 95.5075 763.789 93.6703C761.893 91.8331 759.241 90.9145 755.833 90.9145ZM755.211 94.4259C753.314 94.4259 751.536 94.8408 749.877 95.6705C748.247 96.4706 746.869 97.6262 745.743 99.1375C744.647 100.649 743.921 102.412 743.565 104.427C743.447 105.108 743.387 105.82 743.387 106.56C743.387 108.99 744.143 110.916 745.654 112.339C747.166 113.731 749.181 114.428 751.699 114.428C754.04 114.428 756.174 113.761 758.1 112.428C760.026 111.094 761.404 109.331 762.234 107.138H755.744C754.974 108.59 753.848 109.316 752.366 109.316C751.477 109.316 750.781 109.035 750.277 108.472C749.803 107.879 749.566 107.035 749.566 105.938C749.566 105.464 749.61 104.96 749.699 104.427C749.966 102.827 750.499 101.612 751.299 100.782C752.099 99.9524 753.033 99.5375 754.099 99.5375C754.87 99.5375 755.463 99.7301 755.877 100.115C756.322 100.501 756.589 101.034 756.678 101.715H763.211C763.182 99.4634 762.426 97.6855 760.945 96.3817C759.493 95.0779 757.581 94.4259 755.211 94.4259Z" fill="#444444"/>
<mask id="path-4-outside-1_1375_2" maskUnits="userSpaceOnUse" x="0.0207946" y="172.892" width="573.994" height="311.937" fill="black">
<rect fill="white" x="0.0207946" y="172.892" width="573.994" height="311.937"/>
<path d="M44.3667 472.559C42.0196 472.836 38.499 472.515 33.805 471.593C29.4042 470.341 24.8568 468.368 20.1628 465.674C15.4687 462.98 11.508 459.313 8.28085 454.673C4.76028 450.067 3 444.514 3 438.015C3 429.152 5.64042 418.204 10.9213 405.171C16.2021 391.843 22.6565 379.114 30.2844 366.985C37.9123 354.56 46.1269 343.839 54.9283 334.821C63.7298 325.802 71.651 320.877 78.6922 320.043C84.2664 319.384 89.5472 319.793 94.5347 321.27C99.5222 322.748 103.776 324.756 107.297 327.293C111.111 329.796 114.045 332.698 116.098 336.001C118.445 338.972 119.619 341.64 119.619 344.004C119.619 347.844 118.592 352.249 116.538 357.219C114.485 362.189 111.991 366.916 109.057 371.399C106.417 375.848 103.63 379.723 100.696 383.024C98.0553 385.995 95.8549 387.585 94.0946 387.794C91.7476 388.071 89.5473 387.741 87.4936 386.802C85.7333 385.534 84.2664 384.23 83.0929 382.892C81.9194 381.554 81.3326 380.294 81.3326 379.112C81.626 377.6 82.6528 376.74 84.4131 376.532C86.1734 376.323 88.5204 374.273 91.4542 370.38C94.6814 366.453 97.3218 362.153 99.3755 357.478C101.429 352.804 102.603 348.676 102.896 345.097C103.483 341.482 102.016 339.883 98.4954 340.3C94.6814 340.751 89.5472 344.313 83.0929 350.986C76.9319 357.328 70.7709 365.443 64.6099 375.33C58.7423 384.888 53.6081 395.54 49.2074 407.287C44.8067 419.034 42.6064 430.373 42.6064 441.304C42.6064 447.212 45.3935 449.837 50.9677 449.177C58.0088 448.344 65.1967 445.573 72.5312 440.864C80.1591 435.825 87.6403 429.77 94.9748 422.698C102.603 415.591 109.791 407.945 116.538 399.761C123.579 391.246 129.887 383.262 135.461 375.807C136.635 374.191 138.102 373.279 139.862 373.071C141.622 372.862 142.942 373.592 143.823 375.261C144.703 376.929 144.409 378.884 142.943 381.126C137.368 389.467 130.914 398.798 123.579 409.12C116.538 419.112 108.764 428.599 100.256 437.583C92.041 446.532 83.0929 454.385 73.4113 461.144C64.0231 467.573 54.3416 471.378 44.3667 472.559Z"/>
<path d="M210.088 218.965C213.608 218.548 217.129 219.166 220.649 220.817C224.463 222.434 227.691 224.563 230.331 227.205C232.971 229.846 234.732 232.592 235.612 235.442C236.785 238.258 236.492 240.656 234.732 242.637C230.918 246.929 226.37 254.262 221.089 264.636C215.809 274.715 210.234 286.305 204.367 299.408C198.793 312.18 193.218 325.543 187.644 339.497C182.07 353.156 176.936 365.876 172.242 377.658C167.841 389.405 164.174 399.293 161.24 407.321C158.599 415.315 157.279 419.755 157.279 420.641C157.279 423.005 158.159 424.082 159.92 423.874C163.44 423.457 167.988 420.556 173.562 415.169C179.136 409.782 184.564 403.822 189.844 397.289C195.419 390.425 200.406 384.074 204.807 378.235C209.208 372.101 211.995 368.226 213.168 366.61C214.342 364.994 215.809 364.082 217.569 363.874C219.329 363.665 220.649 364.395 221.53 366.064C222.41 367.732 222.116 369.687 220.649 371.929C220.356 372.554 218.742 375.256 215.809 380.035C212.875 384.518 209.208 389.975 204.807 396.404C200.406 402.833 195.419 409.775 189.844 417.23C184.564 424.354 178.989 431.218 173.122 437.821C167.547 444.094 161.973 449.481 156.399 453.981C150.825 458.186 145.837 460.549 141.437 461.07C139.676 461.278 137.329 460.817 134.395 459.687C131.168 458.592 128.235 457.167 125.594 455.411C122.66 453.395 120.167 451.031 118.113 448.32C116.059 445.609 115.032 442.776 115.032 439.822C115.032 435.686 117.086 427.466 121.193 415.163C125.007 402.599 129.995 388.271 136.156 372.18C142.317 355.793 149.065 338.746 156.399 321.038C164.027 303.001 171.361 286.475 178.403 271.461C185.444 256.447 191.751 244.031 197.326 234.213C203.193 224.36 207.447 219.278 210.088 218.965Z"/>
<path d="M365.326 348.601C366.5 346.985 367.966 346.073 369.727 345.864C371.487 345.656 372.807 346.386 373.687 348.055C374.568 349.723 374.274 351.678 372.807 353.92C367.233 362.26 361.072 371.557 354.324 381.809C347.87 391.732 340.975 401.115 333.641 409.96C326.6 418.77 319.559 426.398 312.518 432.844C305.476 438.995 298.729 442.453 292.274 443.217C290.807 443.391 288.607 442.912 285.673 441.782C283.033 440.618 280.246 439.027 277.312 437.011C274.671 434.96 272.324 432.579 270.271 429.868C268.217 427.157 267.19 424.472 267.19 421.813C267.19 417.677 268.364 412.368 270.711 405.886C273.058 399.404 275.405 392.775 277.752 385.998C272.471 394.009 266.75 401.924 260.589 409.743C254.722 417.528 248.707 424.591 242.546 430.934C236.679 436.946 230.811 442.072 224.943 446.311C219.076 450.256 213.795 452.506 209.101 453.061C206.167 453.408 203.38 452.704 200.74 450.949C198.099 449.193 195.752 446.96 193.698 444.249C191.645 441.242 190.031 438.036 188.858 434.629C187.391 430.962 186.657 427.504 186.657 424.254C186.657 419.823 188.271 413.723 191.498 405.956C194.725 398.188 199.126 389.691 204.7 380.463C209.981 370.976 215.849 361.418 222.303 351.791C229.051 342.13 235.799 333.355 242.546 325.466C249.587 317.247 256.335 310.54 262.79 305.344C269.244 299.853 274.818 296.83 279.512 296.275C285.673 295.545 291.688 296.458 297.555 299.014C303.423 301.569 308.704 304.932 313.398 309.103C318.092 313.275 322.052 317.828 325.28 322.764C328.507 327.404 330.56 331.593 331.441 335.329C331.441 335.92 331.587 336.346 331.881 336.606V337.936C331.881 339.708 330.707 343.688 328.36 349.874C326.013 355.765 323.373 362.282 320.439 369.424C317.798 376.236 315.305 382.883 312.958 389.364C310.611 395.846 309.437 400.416 309.437 403.075C309.437 405.143 310.317 406.073 312.078 405.865C315.598 405.448 319.265 403.685 323.079 400.574C326.893 397.169 331.001 392.99 335.401 388.037C339.802 382.79 344.496 376.769 349.483 369.974C354.471 363.18 359.752 356.056 365.326 348.601ZM232.865 415.683C234.038 415.544 236.532 413.477 240.346 409.48C244.453 405.449 249.001 400.479 253.988 394.571C259.269 388.333 264.697 381.782 270.271 374.918C275.845 367.759 280.979 360.948 285.673 354.483C290.661 347.985 294.621 342.346 297.555 337.567C300.782 332.458 302.396 329.165 302.396 327.688C302.396 325.325 301.809 323.031 300.636 320.806C299.462 318.582 297.262 317.513 294.035 317.599C291.688 317.877 288.46 320.032 284.353 324.063C280.246 327.799 275.698 332.621 270.711 338.529C266.017 344.402 261.176 351.031 256.189 358.416C251.494 365.471 247.094 372.492 242.986 379.477C239.172 386.133 235.945 392.423 233.305 398.349C230.958 404.24 229.784 408.662 229.784 411.617C229.784 414.571 230.811 415.926 232.865 415.683Z"/>
<path d="M463.771 336.949C464.945 335.333 466.265 334.438 467.732 334.265C469.492 334.056 470.812 334.786 471.693 336.455C472.866 338.089 472.719 340.026 471.252 342.268C459.811 362.529 446.902 378.386 432.526 389.836C431.059 395.623 428.272 401.27 424.165 406.779C420.058 411.992 415.363 416.831 410.083 421.297C404.802 425.467 399.374 428.916 393.8 431.644C388.226 434.371 382.945 436.03 377.957 436.621C375.024 436.968 371.65 436.481 367.836 435.16C364.315 434.099 361.088 432.413 358.154 430.102C354.927 427.825 352.287 425.183 350.233 422.176C348.179 419.17 347.153 416.042 347.153 412.792C347.153 410.133 347.886 408.126 349.353 406.771C350.82 405.415 352.287 404.651 353.754 404.477C354.927 404.338 355.954 404.512 356.834 404.999C357.421 405.225 358.008 405.599 358.594 406.12C359.181 406.641 359.915 407.145 360.795 407.632C361.381 408.154 362.408 408.327 363.875 408.154C365.049 408.015 368.129 407.355 373.117 406.174C378.104 404.993 383.092 402.63 388.079 399.085C385.732 396.999 384.559 394.184 384.559 390.639C384.559 387.094 385.732 384.001 388.079 381.359C390.72 378.388 393.8 376.694 397.321 376.277C397.907 376.208 398.347 376.303 398.641 376.564C398.347 371.577 397.467 364.886 396 356.492C394.827 348.064 393.507 338.175 392.04 326.827C388.226 331.415 384.412 336.593 380.598 342.362L372.677 353.935C371.503 355.551 370.183 356.446 368.716 356.619C366.956 356.828 365.635 356.098 364.755 354.429C363.582 352.796 363.728 350.858 365.195 348.616L372.237 338.477C375.464 333.073 378.398 327.703 381.038 322.369C383.385 317.659 385.439 312.689 387.199 307.459C388.959 301.933 389.839 296.954 389.839 292.523V285.432C389.839 278.637 392.186 272.599 396.881 267.316C401.575 262.034 405.975 259.15 410.083 258.664C412.723 258.351 415.217 258.794 417.564 259.994C420.204 260.863 422.405 262.08 424.165 263.644C425.925 265.208 427.099 266.99 427.685 268.988C428.272 270.691 427.832 272.368 426.365 274.019C424.018 276.956 421.378 280.222 418.444 283.819C415.51 287.121 414.043 292.021 414.043 298.521C414.043 305.02 414.777 311.433 416.244 317.759C418.004 324.05 419.911 330.323 421.965 336.58C424.018 342.541 426.072 348.502 428.126 354.462C430.179 360.128 431.646 365.863 432.526 371.667C437.807 367.497 442.941 362.458 447.929 356.55C453.21 350.312 458.49 343.778 463.771 336.949Z"/>
<path d="M561.756 325.352C562.929 323.736 564.25 322.841 565.716 322.668C567.477 322.459 568.797 323.189 569.677 324.858C570.851 326.491 570.704 328.429 569.237 330.671C557.795 350.932 544.886 366.788 530.511 378.239C529.044 384.026 526.257 389.673 522.149 395.182C518.042 400.395 513.348 405.234 508.067 409.7C502.786 413.87 497.359 417.319 491.784 420.046C486.21 422.774 480.929 424.433 475.942 425.024C473.008 425.371 469.634 424.884 465.82 423.563C462.3 422.502 459.073 420.816 456.139 418.505C452.912 416.228 450.271 413.586 448.217 410.579C446.164 407.573 445.137 404.444 445.137 401.195C445.137 398.536 445.87 396.529 447.337 395.173C448.804 393.818 450.271 393.054 451.738 392.88C452.912 392.741 453.938 392.915 454.819 393.402C455.405 393.628 455.992 394.001 456.579 394.523C457.166 395.044 457.899 395.548 458.779 396.035C459.366 396.556 460.393 396.73 461.86 396.557C463.033 396.418 466.114 395.758 471.101 394.576C476.089 393.395 481.076 391.032 486.064 387.488C483.717 385.402 482.543 382.587 482.543 379.042C482.543 375.497 483.717 372.403 486.064 369.762C488.704 366.791 491.785 365.097 495.305 364.68C495.892 364.611 496.332 364.706 496.625 364.967C496.332 359.979 495.452 353.289 493.985 344.895C492.811 336.466 491.491 326.578 490.024 315.23C486.21 319.817 482.396 324.996 478.582 330.765L470.661 342.338C469.488 343.954 468.167 344.849 466.7 345.022C464.94 345.231 463.62 344.501 462.74 342.832C461.566 341.199 461.713 339.261 463.18 337.019L470.221 326.88C473.448 321.476 476.382 316.106 479.022 310.771C481.369 306.062 483.423 301.092 485.183 295.862C486.944 290.336 487.824 285.357 487.824 280.925V273.835C487.824 267.04 490.171 261.002 494.865 255.719C499.559 250.437 503.96 247.552 508.067 247.066C510.708 246.754 513.201 247.197 515.548 248.397C518.189 249.266 520.389 250.482 522.149 252.047C523.91 253.611 525.083 255.392 525.67 257.391C526.257 259.094 525.817 260.771 524.35 262.422C522.003 265.358 519.362 268.625 516.428 272.222C513.495 275.524 512.028 280.424 512.028 286.923C512.028 293.423 512.761 299.836 514.228 306.161C515.988 312.452 517.895 318.726 519.949 324.982C522.003 330.943 524.056 336.904 526.11 342.865C528.164 348.531 529.631 354.266 530.511 360.07C535.792 355.9 540.926 350.861 545.913 344.953C551.194 338.715 556.475 332.181 561.756 325.352Z"/>
</mask>
<path d="M44.3667 472.559C42.0196 472.836 38.499 472.515 33.805 471.593C29.4042 470.341 24.8568 468.368 20.1628 465.674C15.4687 462.98 11.508 459.313 8.28085 454.673C4.76028 450.067 3 444.514 3 438.015C3 429.152 5.64042 418.204 10.9213 405.171C16.2021 391.843 22.6565 379.114 30.2844 366.985C37.9123 354.56 46.1269 343.839 54.9283 334.821C63.7298 325.802 71.651 320.877 78.6922 320.043C84.2664 319.384 89.5472 319.793 94.5347 321.27C99.5222 322.748 103.776 324.756 107.297 327.293C111.111 329.796 114.045 332.698 116.098 336.001C118.445 338.972 119.619 341.64 119.619 344.004C119.619 347.844 118.592 352.249 116.538 357.219C114.485 362.189 111.991 366.916 109.057 371.399C106.417 375.848 103.63 379.723 100.696 383.024C98.0553 385.995 95.8549 387.585 94.0946 387.794C91.7476 388.071 89.5473 387.741 87.4936 386.802C85.7333 385.534 84.2664 384.23 83.0929 382.892C81.9194 381.554 81.3326 380.294 81.3326 379.112C81.626 377.6 82.6528 376.74 84.4131 376.532C86.1734 376.323 88.5204 374.273 91.4542 370.38C94.6814 366.453 97.3218 362.153 99.3755 357.478C101.429 352.804 102.603 348.676 102.896 345.097C103.483 341.482 102.016 339.883 98.4954 340.3C94.6814 340.751 89.5472 344.313 83.0929 350.986C76.9319 357.328 70.7709 365.443 64.6099 375.33C58.7423 384.888 53.6081 395.54 49.2074 407.287C44.8067 419.034 42.6064 430.373 42.6064 441.304C42.6064 447.212 45.3935 449.837 50.9677 449.177C58.0088 448.344 65.1967 445.573 72.5312 440.864C80.1591 435.825 87.6403 429.77 94.9748 422.698C102.603 415.591 109.791 407.945 116.538 399.761C123.579 391.246 129.887 383.262 135.461 375.807C136.635 374.191 138.102 373.279 139.862 373.071C141.622 372.862 142.942 373.592 143.823 375.261C144.703 376.929 144.409 378.884 142.943 381.126C137.368 389.467 130.914 398.798 123.579 409.12C116.538 419.112 108.764 428.599 100.256 437.583C92.041 446.532 83.0929 454.385 73.4113 461.144C64.0231 467.573 54.3416 471.378 44.3667 472.559Z" fill="#444444"/>
<path d="M210.088 218.965C213.608 218.548 217.129 219.166 220.649 220.817C224.463 222.434 227.691 224.563 230.331 227.205C232.971 229.846 234.732 232.592 235.612 235.442C236.785 238.258 236.492 240.656 234.732 242.637C230.918 246.929 226.37 254.262 221.089 264.636C215.809 274.715 210.234 286.305 204.367 299.408C198.793 312.18 193.218 325.543 187.644 339.497C182.07 353.156 176.936 365.876 172.242 377.658C167.841 389.405 164.174 399.293 161.24 407.321C158.599 415.315 157.279 419.755 157.279 420.641C157.279 423.005 158.159 424.082 159.92 423.874C163.44 423.457 167.988 420.556 173.562 415.169C179.136 409.782 184.564 403.822 189.844 397.289C195.419 390.425 200.406 384.074 204.807 378.235C209.208 372.101 211.995 368.226 213.168 366.61C214.342 364.994 215.809 364.082 217.569 363.874C219.329 363.665 220.649 364.395 221.53 366.064C222.41 367.732 222.116 369.687 220.649 371.929C220.356 372.554 218.742 375.256 215.809 380.035C212.875 384.518 209.208 389.975 204.807 396.404C200.406 402.833 195.419 409.775 189.844 417.23C184.564 424.354 178.989 431.218 173.122 437.821C167.547 444.094 161.973 449.481 156.399 453.981C150.825 458.186 145.837 460.549 141.437 461.07C139.676 461.278 137.329 460.817 134.395 459.687C131.168 458.592 128.235 457.167 125.594 455.411C122.66 453.395 120.167 451.031 118.113 448.32C116.059 445.609 115.032 442.776 115.032 439.822C115.032 435.686 117.086 427.466 121.193 415.163C125.007 402.599 129.995 388.271 136.156 372.18C142.317 355.793 149.065 338.746 156.399 321.038C164.027 303.001 171.361 286.475 178.403 271.461C185.444 256.447 191.751 244.031 197.326 234.213C203.193 224.36 207.447 219.278 210.088 218.965Z" fill="#444444"/>
<path d="M365.326 348.601C366.5 346.985 367.966 346.073 369.727 345.864C371.487 345.656 372.807 346.386 373.687 348.055C374.568 349.723 374.274 351.678 372.807 353.92C367.233 362.26 361.072 371.557 354.324 381.809C347.87 391.732 340.975 401.115 333.641 409.96C326.6 418.77 319.559 426.398 312.518 432.844C305.476 438.995 298.729 442.453 292.274 443.217C290.807 443.391 288.607 442.912 285.673 441.782C283.033 440.618 280.246 439.027 277.312 437.011C274.671 434.96 272.324 432.579 270.271 429.868C268.217 427.157 267.19 424.472 267.19 421.813C267.19 417.677 268.364 412.368 270.711 405.886C273.058 399.404 275.405 392.775 277.752 385.998C272.471 394.009 266.75 401.924 260.589 409.743C254.722 417.528 248.707 424.591 242.546 430.934C236.679 436.946 230.811 442.072 224.943 446.311C219.076 450.256 213.795 452.506 209.101 453.061C206.167 453.408 203.38 452.704 200.74 450.949C198.099 449.193 195.752 446.96 193.698 444.249C191.645 441.242 190.031 438.036 188.858 434.629C187.391 430.962 186.657 427.504 186.657 424.254C186.657 419.823 188.271 413.723 191.498 405.956C194.725 398.188 199.126 389.691 204.7 380.463C209.981 370.976 215.849 361.418 222.303 351.791C229.051 342.13 235.799 333.355 242.546 325.466C249.587 317.247 256.335 310.54 262.79 305.344C269.244 299.853 274.818 296.83 279.512 296.275C285.673 295.545 291.688 296.458 297.555 299.014C303.423 301.569 308.704 304.932 313.398 309.103C318.092 313.275 322.052 317.828 325.28 322.764C328.507 327.404 330.56 331.593 331.441 335.329C331.441 335.92 331.587 336.346 331.881 336.606V337.936C331.881 339.708 330.707 343.688 328.36 349.874C326.013 355.765 323.373 362.282 320.439 369.424C317.798 376.236 315.305 382.883 312.958 389.364C310.611 395.846 309.437 400.416 309.437 403.075C309.437 405.143 310.317 406.073 312.078 405.865C315.598 405.448 319.265 403.685 323.079 400.574C326.893 397.169 331.001 392.99 335.401 388.037C339.802 382.79 344.496 376.769 349.483 369.974C354.471 363.18 359.752 356.056 365.326 348.601ZM232.865 415.683C234.038 415.544 236.532 413.477 240.346 409.48C244.453 405.449 249.001 400.479 253.988 394.571C259.269 388.333 264.697 381.782 270.271 374.918C275.845 367.759 280.979 360.948 285.673 354.483C290.661 347.985 294.621 342.346 297.555 337.567C300.782 332.458 302.396 329.165 302.396 327.688C302.396 325.325 301.809 323.031 300.636 320.806C299.462 318.582 297.262 317.513 294.035 317.599C291.688 317.877 288.46 320.032 284.353 324.063C280.246 327.799 275.698 332.621 270.711 338.529C266.017 344.402 261.176 351.031 256.189 358.416C251.494 365.471 247.094 372.492 242.986 379.477C239.172 386.133 235.945 392.423 233.305 398.349C230.958 404.24 229.784 408.662 229.784 411.617C229.784 414.571 230.811 415.926 232.865 415.683Z" fill="#444444"/>
<path d="M463.771 336.949C464.945 335.333 466.265 334.438 467.732 334.265C469.492 334.056 470.812 334.786 471.693 336.455C472.866 338.089 472.719 340.026 471.252 342.268C459.811 362.529 446.902 378.386 432.526 389.836C431.059 395.623 428.272 401.27 424.165 406.779C420.058 411.992 415.363 416.831 410.083 421.297C404.802 425.467 399.374 428.916 393.8 431.644C388.226 434.371 382.945 436.03 377.957 436.621C375.024 436.968 371.65 436.481 367.836 435.16C364.315 434.099 361.088 432.413 358.154 430.102C354.927 427.825 352.287 425.183 350.233 422.176C348.179 419.17 347.153 416.042 347.153 412.792C347.153 410.133 347.886 408.126 349.353 406.771C350.82 405.415 352.287 404.651 353.754 404.477C354.927 404.338 355.954 404.512 356.834 404.999C357.421 405.225 358.008 405.599 358.594 406.12C359.181 406.641 359.915 407.145 360.795 407.632C361.381 408.154 362.408 408.327 363.875 408.154C365.049 408.015 368.129 407.355 373.117 406.174C378.104 404.993 383.092 402.63 388.079 399.085C385.732 396.999 384.559 394.184 384.559 390.639C384.559 387.094 385.732 384.001 388.079 381.359C390.72 378.388 393.8 376.694 397.321 376.277C397.907 376.208 398.347 376.303 398.641 376.564C398.347 371.577 397.467 364.886 396 356.492C394.827 348.064 393.507 338.175 392.04 326.827C388.226 331.415 384.412 336.593 380.598 342.362L372.677 353.935C371.503 355.551 370.183 356.446 368.716 356.619C366.956 356.828 365.635 356.098 364.755 354.429C363.582 352.796 363.728 350.858 365.195 348.616L372.237 338.477C375.464 333.073 378.398 327.703 381.038 322.369C383.385 317.659 385.439 312.689 387.199 307.459C388.959 301.933 389.839 296.954 389.839 292.523V285.432C389.839 278.637 392.186 272.599 396.881 267.316C401.575 262.034 405.975 259.15 410.083 258.664C412.723 258.351 415.217 258.794 417.564 259.994C420.204 260.863 422.405 262.08 424.165 263.644C425.925 265.208 427.099 266.99 427.685 268.988C428.272 270.691 427.832 272.368 426.365 274.019C424.018 276.956 421.378 280.222 418.444 283.819C415.51 287.121 414.043 292.021 414.043 298.521C414.043 305.02 414.777 311.433 416.244 317.759C418.004 324.05 419.911 330.323 421.965 336.58C424.018 342.541 426.072 348.502 428.126 354.462C430.179 360.128 431.646 365.863 432.526 371.667C437.807 367.497 442.941 362.458 447.929 356.55C453.21 350.312 458.49 343.778 463.771 336.949Z" fill="#444444"/>
<path d="M561.756 325.352C562.929 323.736 564.25 322.841 565.716 322.668C567.477 322.459 568.797 323.189 569.677 324.858C570.851 326.491 570.704 328.429 569.237 330.671C557.795 350.932 544.886 366.788 530.511 378.239C529.044 384.026 526.257 389.673 522.149 395.182C518.042 400.395 513.348 405.234 508.067 409.7C502.786 413.87 497.359 417.319 491.784 420.046C486.21 422.774 480.929 424.433 475.942 425.024C473.008 425.371 469.634 424.884 465.82 423.563C462.3 422.502 459.073 420.816 456.139 418.505C452.912 416.228 450.271 413.586 448.217 410.579C446.164 407.573 445.137 404.444 445.137 401.195C445.137 398.536 445.87 396.529 447.337 395.173C448.804 393.818 450.271 393.054 451.738 392.88C452.912 392.741 453.938 392.915 454.819 393.402C455.405 393.628 455.992 394.001 456.579 394.523C457.166 395.044 457.899 395.548 458.779 396.035C459.366 396.556 460.393 396.73 461.86 396.557C463.033 396.418 466.114 395.758 471.101 394.576C476.089 393.395 481.076 391.032 486.064 387.488C483.717 385.402 482.543 382.587 482.543 379.042C482.543 375.497 483.717 372.403 486.064 369.762C488.704 366.791 491.785 365.097 495.305 364.68C495.892 364.611 496.332 364.706 496.625 364.967C496.332 359.979 495.452 353.289 493.985 344.895C492.811 336.466 491.491 326.578 490.024 315.23C486.21 319.817 482.396 324.996 478.582 330.765L470.661 342.338C469.488 343.954 468.167 344.849 466.7 345.022C464.94 345.231 463.62 344.501 462.74 342.832C461.566 341.199 461.713 339.261 463.18 337.019L470.221 326.88C473.448 321.476 476.382 316.106 479.022 310.771C481.369 306.062 483.423 301.092 485.183 295.862C486.944 290.336 487.824 285.357 487.824 280.925V273.835C487.824 267.04 490.171 261.002 494.865 255.719C499.559 250.437 503.96 247.552 508.067 247.066C510.708 246.754 513.201 247.197 515.548 248.397C518.189 249.266 520.389 250.482 522.149 252.047C523.91 253.611 525.083 255.392 525.67 257.391C526.257 259.094 525.817 260.771 524.35 262.422C522.003 265.358 519.362 268.625 516.428 272.222C513.495 275.524 512.028 280.424 512.028 286.923C512.028 293.423 512.761 299.836 514.228 306.161C515.988 312.452 517.895 318.726 519.949 324.982C522.003 330.943 524.056 336.904 526.11 342.865C528.164 348.531 529.631 354.266 530.511 360.07C535.792 355.9 540.926 350.861 545.913 344.953C551.194 338.715 556.475 332.181 561.756 325.352Z" fill="#444444"/>
<path d="M44.3667 472.559C42.0196 472.836 38.499 472.515 33.805 471.593C29.4042 470.341 24.8568 468.368 20.1628 465.674C15.4687 462.98 11.508 459.313 8.28085 454.673C4.76028 450.067 3 444.514 3 438.015C3 429.152 5.64042 418.204 10.9213 405.171C16.2021 391.843 22.6565 379.114 30.2844 366.985C37.9123 354.56 46.1269 343.839 54.9283 334.821C63.7298 325.802 71.651 320.877 78.6922 320.043C84.2664 319.384 89.5472 319.793 94.5347 321.27C99.5222 322.748 103.776 324.756 107.297 327.293C111.111 329.796 114.045 332.698 116.098 336.001C118.445 338.972 119.619 341.64 119.619 344.004C119.619 347.844 118.592 352.249 116.538 357.219C114.485 362.189 111.991 366.916 109.057 371.399C106.417 375.848 103.63 379.723 100.696 383.024C98.0553 385.995 95.8549 387.585 94.0946 387.794C91.7476 388.071 89.5473 387.741 87.4936 386.802C85.7333 385.534 84.2664 384.23 83.0929 382.892C81.9194 381.554 81.3326 380.294 81.3326 379.112C81.626 377.6 82.6528 376.74 84.4131 376.532C86.1734 376.323 88.5204 374.273 91.4542 370.38C94.6814 366.453 97.3218 362.153 99.3755 357.478C101.429 352.804 102.603 348.676 102.896 345.097C103.483 341.482 102.016 339.883 98.4954 340.3C94.6814 340.751 89.5472 344.313 83.0929 350.986C76.9319 357.328 70.7709 365.443 64.6099 375.33C58.7423 384.888 53.6081 395.54 49.2074 407.287C44.8067 419.034 42.6064 430.373 42.6064 441.304C42.6064 447.212 45.3935 449.837 50.9677 449.177C58.0088 448.344 65.1967 445.573 72.5312 440.864C80.1591 435.825 87.6403 429.77 94.9748 422.698C102.603 415.591 109.791 407.945 116.538 399.761C123.579 391.246 129.887 383.262 135.461 375.807C136.635 374.191 138.102 373.279 139.862 373.071C141.622 372.862 142.942 373.592 143.823 375.261C144.703 376.929 144.409 378.884 142.943 381.126C137.368 389.467 130.914 398.798 123.579 409.12C116.538 419.112 108.764 428.599 100.256 437.583C92.041 446.532 83.0929 454.385 73.4113 461.144C64.0231 467.573 54.3416 471.378 44.3667 472.559Z" stroke="white" stroke-width="5.92647" mask="url(#path-4-outside-1_1375_2)"/>
<path d="M210.088 218.965C213.608 218.548 217.129 219.166 220.649 220.817C224.463 222.434 227.691 224.563 230.331 227.205C232.971 229.846 234.732 232.592 235.612 235.442C236.785 238.258 236.492 240.656 234.732 242.637C230.918 246.929 226.37 254.262 221.089 264.636C215.809 274.715 210.234 286.305 204.367 299.408C198.793 312.18 193.218 325.543 187.644 339.497C182.07 353.156 176.936 365.876 172.242 377.658C167.841 389.405 164.174 399.293 161.24 407.321C158.599 415.315 157.279 419.755 157.279 420.641C157.279 423.005 158.159 424.082 159.92 423.874C163.44 423.457 167.988 420.556 173.562 415.169C179.136 409.782 184.564 403.822 189.844 397.289C195.419 390.425 200.406 384.074 204.807 378.235C209.208 372.101 211.995 368.226 213.168 366.61C214.342 364.994 215.809 364.082 217.569 363.874C219.329 363.665 220.649 364.395 221.53 366.064C222.41 367.732 222.116 369.687 220.649 371.929C220.356 372.554 218.742 375.256 215.809 380.035C212.875 384.518 209.208 389.975 204.807 396.404C200.406 402.833 195.419 409.775 189.844 417.23C184.564 424.354 178.989 431.218 173.122 437.821C167.547 444.094 161.973 449.481 156.399 453.981C150.825 458.186 145.837 460.549 141.437 461.07C139.676 461.278 137.329 460.817 134.395 459.687C131.168 458.592 128.235 457.167 125.594 455.411C122.66 453.395 120.167 451.031 118.113 448.32C116.059 445.609 115.032 442.776 115.032 439.822C115.032 435.686 117.086 427.466 121.193 415.163C125.007 402.599 129.995 388.271 136.156 372.18C142.317 355.793 149.065 338.746 156.399 321.038C164.027 303.001 171.361 286.475 178.403 271.461C185.444 256.447 191.751 244.031 197.326 234.213C203.193 224.36 207.447 219.278 210.088 218.965Z" stroke="white" stroke-width="5.92647" mask="url(#path-4-outside-1_1375_2)"/>
<path d="M365.326 348.601C366.5 346.985 367.966 346.073 369.727 345.864C371.487 345.656 372.807 346.386 373.687 348.055C374.568 349.723 374.274 351.678 372.807 353.92C367.233 362.26 361.072 371.557 354.324 381.809C347.87 391.732 340.975 401.115 333.641 409.96C326.6 418.77 319.559 426.398 312.518 432.844C305.476 438.995 298.729 442.453 292.274 443.217C290.807 443.391 288.607 442.912 285.673 441.782C283.033 440.618 280.246 439.027 277.312 437.011C274.671 434.96 272.324 432.579 270.271 429.868C268.217 427.157 267.19 424.472 267.19 421.813C267.19 417.677 268.364 412.368 270.711 405.886C273.058 399.404 275.405 392.775 277.752 385.998C272.471 394.009 266.75 401.924 260.589 409.743C254.722 417.528 248.707 424.591 242.546 430.934C236.679 436.946 230.811 442.072 224.943 446.311C219.076 450.256 213.795 452.506 209.101 453.061C206.167 453.408 203.38 452.704 200.74 450.949C198.099 449.193 195.752 446.96 193.698 444.249C191.645 441.242 190.031 438.036 188.858 434.629C187.391 430.962 186.657 427.504 186.657 424.254C186.657 419.823 188.271 413.723 191.498 405.956C194.725 398.188 199.126 389.691 204.7 380.463C209.981 370.976 215.849 361.418 222.303 351.791C229.051 342.13 235.799 333.355 242.546 325.466C249.587 317.247 256.335 310.54 262.79 305.344C269.244 299.853 274.818 296.83 279.512 296.275C285.673 295.545 291.688 296.458 297.555 299.014C303.423 301.569 308.704 304.932 313.398 309.103C318.092 313.275 322.052 317.828 325.28 322.764C328.507 327.404 330.56 331.593 331.441 335.329C331.441 335.92 331.587 336.346 331.881 336.606V337.936C331.881 339.708 330.707 343.688 328.36 349.874C326.013 355.765 323.373 362.282 320.439 369.424C317.798 376.236 315.305 382.883 312.958 389.364C310.611 395.846 309.437 400.416 309.437 403.075C309.437 405.143 310.317 406.073 312.078 405.865C315.598 405.448 319.265 403.685 323.079 400.574C326.893 397.169 331.001 392.99 335.401 388.037C339.802 382.79 344.496 376.769 349.483 369.974C354.471 363.18 359.752 356.056 365.326 348.601ZM232.865 415.683C234.038 415.544 236.532 413.477 240.346 409.48C244.453 405.449 249.001 400.479 253.988 394.571C259.269 388.333 264.697 381.782 270.271 374.918C275.845 367.759 280.979 360.948 285.673 354.483C290.661 347.985 294.621 342.346 297.555 337.567C300.782 332.458 302.396 329.165 302.396 327.688C302.396 325.325 301.809 323.031 300.636 320.806C299.462 318.582 297.262 317.513 294.035 317.599C291.688 317.877 288.46 320.032 284.353 324.063C280.246 327.799 275.698 332.621 270.711 338.529C266.017 344.402 261.176 351.031 256.189 358.416C251.494 365.471 247.094 372.492 242.986 379.477C239.172 386.133 235.945 392.423 233.305 398.349C230.958 404.24 229.784 408.662 229.784 411.617C229.784 414.571 230.811 415.926 232.865 415.683Z" stroke="white" stroke-width="5.92647" mask="url(#path-4-outside-1_1375_2)"/>
<path d="M463.771 336.949C464.945 335.333 466.265 334.438 467.732 334.265C469.492 334.056 470.812 334.786 471.693 336.455C472.866 338.089 472.719 340.026 471.252 342.268C459.811 362.529 446.902 378.386 432.526 389.836C431.059 395.623 428.272 401.27 424.165 406.779C420.058 411.992 415.363 416.831 410.083 421.297C404.802 425.467 399.374 428.916 393.8 431.644C388.226 434.371 382.945 436.03 377.957 436.621C375.024 436.968 371.65 436.481 367.836 435.16C364.315 434.099 361.088 432.413 358.154 430.102C354.927 427.825 352.287 425.183 350.233 422.176C348.179 419.17 347.153 416.042 347.153 412.792C347.153 410.133 347.886 408.126 349.353 406.771C350.82 405.415 352.287 404.651 353.754 404.477C354.927 404.338 355.954 404.512 356.834 404.999C357.421 405.225 358.008 405.599 358.594 406.12C359.181 406.641 359.915 407.145 360.795 407.632C361.381 408.154 362.408 408.327 363.875 408.154C365.049 408.015 368.129 407.355 373.117 406.174C378.104 404.993 383.092 402.63 388.079 399.085C385.732 396.999 384.559 394.184 384.559 390.639C384.559 387.094 385.732 384.001 388.079 381.359C390.72 378.388 393.8 376.694 397.321 376.277C397.907 376.208 398.347 376.303 398.641 376.564C398.347 371.577 397.467 364.886 396 356.492C394.827 348.064 393.507 338.175 392.04 326.827C388.226 331.415 384.412 336.593 380.598 342.362L372.677 353.935C371.503 355.551 370.183 356.446 368.716 356.619C366.956 356.828 365.635 356.098 364.755 354.429C363.582 352.796 363.728 350.858 365.195 348.616L372.237 338.477C375.464 333.073 378.398 327.703 381.038 322.369C383.385 317.659 385.439 312.689 387.199 307.459C388.959 301.933 389.839 296.954 389.839 292.523V285.432C389.839 278.637 392.186 272.599 396.881 267.316C401.575 262.034 405.975 259.15 410.083 258.664C412.723 258.351 415.217 258.794 417.564 259.994C420.204 260.863 422.405 262.08 424.165 263.644C425.925 265.208 427.099 266.99 427.685 268.988C428.272 270.691 427.832 272.368 426.365 274.019C424.018 276.956 421.378 280.222 418.444 283.819C415.51 287.121 414.043 292.021 414.043 298.521C414.043 305.02 414.777 311.433 416.244 317.759C418.004 324.05 419.911 330.323 421.965 336.58C424.018 342.541 426.072 348.502 428.126 354.462C430.179 360.128 431.646 365.863 432.526 371.667C437.807 367.497 442.941 362.458 447.929 356.55C453.21 350.312 458.49 343.778 463.771 336.949Z" stroke="white" stroke-width="5.92647" mask="url(#path-4-outside-1_1375_2)"/>
<path d="M561.756 325.352C562.929 323.736 564.25 322.841 565.716 322.668C567.477 322.459 568.797 323.189 569.677 324.858C570.851 326.491 570.704 328.429 569.237 330.671C557.795 350.932 544.886 366.788 530.511 378.239C529.044 384.026 526.257 389.673 522.149 395.182C518.042 400.395 513.348 405.234 508.067 409.7C502.786 413.87 497.359 417.319 491.784 420.046C486.21 422.774 480.929 424.433 475.942 425.024C473.008 425.371 469.634 424.884 465.82 423.563C462.3 422.502 459.073 420.816 456.139 418.505C452.912 416.228 450.271 413.586 448.217 410.579C446.164 407.573 445.137 404.444 445.137 401.195C445.137 398.536 445.87 396.529 447.337 395.173C448.804 393.818 450.271 393.054 451.738 392.88C452.912 392.741 453.938 392.915 454.819 393.402C455.405 393.628 455.992 394.001 456.579 394.523C457.166 395.044 457.899 395.548 458.779 396.035C459.366 396.556 460.393 396.73 461.86 396.557C463.033 396.418 466.114 395.758 471.101 394.576C476.089 393.395 481.076 391.032 486.064 387.488C483.717 385.402 482.543 382.587 482.543 379.042C482.543 375.497 483.717 372.403 486.064 369.762C488.704 366.791 491.785 365.097 495.305 364.68C495.892 364.611 496.332 364.706 496.625 364.967C496.332 359.979 495.452 353.289 493.985 344.895C492.811 336.466 491.491 326.578 490.024 315.23C486.21 319.817 482.396 324.996 478.582 330.765L470.661 342.338C469.488 343.954 468.167 344.849 466.7 345.022C464.94 345.231 463.62 344.501 462.74 342.832C461.566 341.199 461.713 339.261 463.18 337.019L470.221 326.88C473.448 321.476 476.382 316.106 479.022 310.771C481.369 306.062 483.423 301.092 485.183 295.862C486.944 290.336 487.824 285.357 487.824 280.925V273.835C487.824 267.04 490.171 261.002 494.865 255.719C499.559 250.437 503.96 247.552 508.067 247.066C510.708 246.754 513.201 247.197 515.548 248.397C518.189 249.266 520.389 250.482 522.149 252.047C523.91 253.611 525.083 255.392 525.67 257.391C526.257 259.094 525.817 260.771 524.35 262.422C522.003 265.358 519.362 268.625 516.428 272.222C513.495 275.524 512.028 280.424 512.028 286.923C512.028 293.423 512.761 299.836 514.228 306.161C515.988 312.452 517.895 318.726 519.949 324.982C522.003 330.943 524.056 336.904 526.11 342.865C528.164 348.531 529.631 354.266 530.511 360.07C535.792 355.9 540.926 350.861 545.913 344.953C551.194 338.715 556.475 332.181 561.756 325.352Z" stroke="white" stroke-width="5.92647" mask="url(#path-4-outside-1_1375_2)"/>
</svg>
